<svg width="40" height="46" viewBox="0 0 40 46" fill="none" xmlns="http://www.w3.org/2000/svg">
<path d="M14.1169 3.3786C17.7698 1.32381 22.2302 1.32381 25.8831 3.3786L33.8831 7.8786C37.6617 10.004 40 14.0022 40 18.3375V26.8012C40 31.1364 37.6617 35.1347 33.8831 37.2601L25.8831 41.7601C22.2302 43.8149 17.7698 43.8149 14.1169 41.7601L6.11686 37.2601C2.33834 35.1347 0 31.1364 0 26.8012V18.3375C0 14.0022 2.33834 10.004 6.11687 7.8786L14.1169 3.3786Z" fill="#35495A"/>
<g clip-path="url(#clip0)">
<path fill-rule="evenodd" clip-rule="evenodd" d="M10.705 13.1904C11.2546 13.1904 11.7003 13.6291 11.7003 14.1702V20.8487C12.8322 19.799 14.3552 19.1536 16.0294 19.1536C17.7272 19.1536 19.3319 19.8174 20.5149 20.992C20.6508 21.127 20.6817 21.1708 20.8062 21.319C20.1098 22.1416 19.8112 23.2192 19.8112 23.2192C19.5128 22.8274 19.2132 22.4866 19.2132 22.4866C18.3935 21.6107 17.2461 21.113 16.0294 21.113C13.6423 21.113 11.7003 23.0247 11.7003 25.3745C11.7003 27.7243 13.6423 29.6362 16.0294 29.6362C18.4165 29.6362 20.3588 27.7243 20.3588 25.3745C20.3588 21.9443 23.1936 19.1536 26.6782 19.1536C27.7894 19.1536 28.8824 19.4418 29.8392 19.9868C30.315 20.2576 30.4774 20.8569 30.2023 21.3253C29.9268 21.7936 29.3179 21.9538 28.8424 21.6825C28.1882 21.3098 27.4399 21.113 26.6782 21.113C24.2913 21.113 22.3491 23.0247 22.3491 25.3745C22.3491 28.8047 19.5141 31.5955 16.0294 31.5955C12.5448 31.5955 9.70996 28.8047 9.70996 25.3745L9.71148 25.3092C9.71097 25.2983 9.70996 25.2876 9.70996 25.2766V14.1702C9.70996 13.6291 10.1553 13.1904 10.705 13.1904ZM22.8965 27.5298C23.2945 28.1177 23.702 28.4694 23.7349 28.4998C24.5378 29.2337 25.5779 29.6362 26.6782 29.6362C27.4399 29.6362 28.1882 29.4392 28.8424 29.0665C29.3179 28.7957 29.9268 28.9554 30.2023 29.4237C30.4774 29.8921 30.315 30.4914 29.8392 30.7624C28.8824 31.3075 27.7894 31.5955 26.6782 31.5955C25.0429 31.5955 23.499 30.9864 22.3187 29.8781C22.2919 29.8532 21.9275 29.5147 21.9012 29.4893C21.9012 29.4893 22.6973 28.3135 22.8965 27.5298Z" fill="white"/>
</g>
<defs>
<clipPath id="clip0">
<rect width="21.4286" height="19.0848" fill="white" transform="translate(9.28516 12.7258)"/>
</clipPath>
</defs>
</svg>
