<svg width="100%" height="100%"  viewBox="0 0 33 33" fill="none" xmlns="http://www.w3.org/2000/svg">
<rect opacity="0.5" x="12" y="5" width="16" height="16" rx="8" fill="#7987FF"/>
<circle opacity="0.5" cx="20" cy="13" r="12" stroke="#AEB5F2" stroke-opacity="0.7" stroke-width="1.5"/>
<path fill-rule="evenodd" clip-rule="evenodd" d="M3.75 11C1.67893 11 0 12.6789 0 14.75V29.25C0 31.3211 1.67893 33 3.75 33H12.25C14.3211 33 16 31.3211 16 29.25V14.75C16 12.6789 14.3211 11 12.25 11H3.75ZM1.5 14.75C1.5 13.5074 2.50736 12.5 3.75 12.5H12.25C13.4926 12.5 14.5 13.5074 14.5 14.75V25C14.5 26.1046 13.6046 27 12.5 27H3.5C2.39543 27 1.5 26.1046 1.5 25V14.75ZM2.25 28.5C1.83579 28.5 1.5 28.8358 1.5 29.25C1.5 30.4926 2.50736 31.5 3.75 31.5H12.25C13.4926 31.5 14.5 30.4926 14.5 29.25C14.5 28.8358 14.1642 28.5 13.75 28.5H2.25Z" fill="#15295A"/>
<path d="M1 28H15V30C15 31.1046 14.1046 32 13 32H3C1.89543 32 1 31.1046 1 30V28Z" fill="#15295A"/>
<path fill-rule="evenodd" clip-rule="evenodd" d="M6.2876 8.11852C6.12318 8.5681 6.4921 9 6.9708 9C7.33189 9 7.63669 8.74664 7.7849 8.41737C8.29373 7.28699 9.42996 6.5 10.75 6.5H23.25C25.0449 6.5 26.5 7.95507 26.5 9.75V28.25C26.5 30.0449 25.0449 31.5 23.25 31.5H18.75C18.3358 31.5 18 31.8358 18 32.25C18 32.6642 18.3358 33 18.75 33H23.25C25.8734 33 28 30.8734 28 28.25V9.75C28 7.12665 25.8734 5 23.25 5H10.75C8.69986 5 6.95307 6.29882 6.2876 8.11852Z" fill="#15295A"/>
<path d="M18 29C18 27.8954 18.8954 27 20 27H28V28C28 30.7614 25.7614 33 23 33H18V29Z" fill="#15295A"/>
</svg>
