<svg width="19" height="17" viewBox="0 0 19 17" fill="none" xmlns="http://www.w3.org/2000/svg">
<path fill-rule="evenodd" clip-rule="evenodd" d="M9.22558 4.82559L9.26677 5.51763L8.58034 5.43289C6.08175 5.10805 3.89891 4.00643 2.04555 2.15627L1.13947 1.23825L0.906084 1.91617C0.411856 3.42737 0.727613 5.02331 1.75725 6.09669C2.3064 6.68987 2.18284 6.77461 1.23557 6.42153C0.906084 6.30854 0.617785 6.2238 0.590328 6.26617C0.494228 6.36503 0.823713 7.65026 1.08456 8.1587C1.4415 8.86487 2.16911 9.55692 2.96537 9.96649L3.63806 10.2913L2.84181 10.3055C2.07301 10.3055 2.04555 10.3196 2.12792 10.6162C2.4025 11.5342 3.48705 12.5087 4.69516 12.9324L5.54633 13.229L4.80499 13.6809C3.70671 14.3306 2.41622 14.6978 1.12574 14.7261C0.507956 14.7402 0 14.7967 0 14.8391C0 14.9803 1.67488 15.7712 2.64961 16.0819C5.57379 16.9999 9.04711 16.6045 11.6555 15.0368C13.5089 13.921 15.3622 11.7037 16.2271 9.55692C16.6939 8.41292 17.1607 6.32266 17.1607 5.3199C17.1607 4.67023 17.2019 4.58549 17.9707 3.8087C18.4237 3.35676 18.8493 2.86244 18.9317 2.7212C19.069 2.45286 19.0552 2.45286 18.3551 2.69296C17.1881 3.11666 17.0234 3.06017 17.6 2.42461C18.0256 1.97267 18.5335 1.15351 18.5335 0.913413C18.5335 0.871043 18.3276 0.94166 18.0942 1.06877C17.8471 1.21 17.298 1.42185 16.8861 1.54896L16.1448 1.78906L15.4721 1.32299C15.1014 1.06877 14.5797 0.786303 14.3051 0.701562C13.605 0.503835 12.5342 0.532082 11.9026 0.758056C10.1866 1.39361 9.10203 3.03192 9.22558 4.82559Z" fill="#55ACEE"/>
</svg>
